<svg xmlns="http://www.w3.org/2000/svg" xmlns:xlink="http://www.w3.org/1999/xlink" width="500" zoomAndPan="magnify" viewBox="0 0 375 374.999991" height="500" preserveAspectRatio="xMidYMid meet" version="1.0"><defs><g/></defs><g fill="#171616" fill-opacity="1"><g transform="translate(25.552845, 283.779579)"><g><path d="M 163.15625 0 L 94.984375 0 L 94.984375 -81.015625 C 94.984375 -85.390625 93.890625 -88.664062 91.703125 -90.84375 C 89.515625 -93.03125 86.945312 -94.125 84 -94.125 C 81.050781 -94.125 78.484375 -93.078125 76.296875 -90.984375 C 74.117188 -88.898438 73.03125 -85.671875 73.03125 -81.296875 L 73.03125 0 L 2.859375 0 L 2.859375 -84.15625 C 2.859375 -99.175781 5.1875 -111.816406 9.84375 -122.078125 C 14.5 -132.347656 20.769531 -140.617188 28.65625 -146.890625 C 36.550781 -153.171875 45.300781 -157.738281 54.90625 -160.59375 C 64.507812 -163.445312 74.257812 -164.875 84.15625 -164.875 C 92.132812 -164.875 100.019531 -163.492188 107.8125 -160.734375 C 115.613281 -157.984375 122.75 -153.375 129.21875 -146.90625 C 134.726562 -152.988281 141.523438 -157.457031 149.609375 -160.3125 C 157.691406 -163.164062 165.632812 -164.6875 173.4375 -164.875 C 183.507812 -164.875 193.394531 -163.398438 203.09375 -160.453125 C 212.789062 -157.503906 221.585938 -152.84375 229.484375 -146.46875 C 237.378906 -140.101562 243.703125 -131.785156 248.453125 -121.515625 C 253.203125 -111.242188 255.578125 -98.789062 255.578125 -84.15625 L 255.578125 0 L 185.40625 0 L 185.40625 -81.296875 C 185.40625 -85.671875 184.265625 -88.898438 181.984375 -90.984375 C 179.703125 -93.078125 177.132812 -94.125 174.28125 -94.125 C 171.4375 -94.125 168.867188 -93.03125 166.578125 -90.84375 C 164.296875 -88.664062 163.15625 -85.390625 163.15625 -81.015625 Z M 163.15625 0 "/></g></g></g><path stroke-linecap="butt" transform="matrix(1.750149, 0, 0, 1.750149, 203.146222, 13.762995)" fill="none" stroke-linejoin="miter" d="M 55.434054 125.912676 C 50.604108 125.912676 46.057619 125.004271 41.787893 123.189693 C 37.520398 121.355027 33.764021 118.815065 30.518761 115.569805 C 27.273501 112.324545 24.744698 108.568168 22.93012 104.300673 C 21.113311 100.033179 20.204906 95.484458 20.204906 90.656744 C 20.204906 85.750911 21.113311 81.182103 22.93012 76.952551 C 24.744698 72.723 27.273501 68.986711 30.518761 65.741451 C 33.764021 62.496191 37.520398 59.967388 41.787893 58.15281 C 46.057619 56.336 50.604108 55.427595 55.434054 55.427595 C 60.337655 55.427595 64.906463 56.336 69.136015 58.15281 C 73.385653 59.967388 77.121943 62.496191 80.347115 65.741451 C 83.592375 68.986711 86.121178 72.723 87.937988 76.952551 C 89.772653 81.182103 90.689986 85.750911 90.689986 90.656744 C 90.689986 95.484458 89.772653 100.033179 87.937988 104.300673 C 86.121178 108.568168 83.592375 112.324545 80.347115 115.569805 C 77.121943 118.815065 73.385653 121.355027 69.136015 123.189693 C 64.906463 125.004271 60.337655 125.912676 55.434054 125.912676 Z M 55.434054 84.601455 C 53.771249 84.601455 52.342799 85.199618 51.146472 86.398177 C 49.968001 87.574416 49.378765 88.993939 49.378765 90.656744 C 49.378765 92.317317 49.968001 93.745767 51.146472 94.944326 C 52.342799 96.120565 53.771249 96.709801 55.434054 96.709801 C 57.094627 96.709801 58.51415 96.120565 59.692621 94.944326 C 60.888948 93.745767 61.487111 92.317317 61.487111 90.656744 C 61.487111 88.993939 60.888948 87.574416 59.692621 86.398177 C 58.51415 85.199618 57.094627 84.601455 55.434054 84.601455 Z M 55.434054 84.601455 " stroke="#fff9f9" stroke-width="8.900025" stroke-opacity="1" stroke-miterlimit="4"/><g fill="#171616" fill-opacity="1"><g transform="translate(236.836586, 230.781439)"><g><path d="M 63.34375 3.328125 C 54.894531 3.328125 46.929688 1.734375 39.453125 -1.453125 C 31.984375 -4.640625 25.410156 -9.070312 19.734375 -14.75 C 14.054688 -20.425781 9.625 -27 6.4375 -34.46875 C 3.25 -41.945312 1.65625 -49.910156 1.65625 -58.359375 C 1.65625 -66.941406 3.25 -74.9375 6.4375 -82.34375 C 9.625 -89.75 14.054688 -96.289062 19.734375 -101.96875 C 25.410156 -107.644531 31.984375 -112.070312 39.453125 -115.25 C 46.929688 -118.4375 54.894531 -120.03125 63.34375 -120.03125 C 71.925781 -120.03125 79.921875 -118.4375 87.328125 -115.25 C 94.734375 -112.070312 101.273438 -107.644531 106.953125 -101.96875 C 112.628906 -96.289062 117.054688 -89.75 120.234375 -82.34375 C 123.421875 -74.9375 125.015625 -66.941406 125.015625 -58.359375 C 125.015625 -49.910156 123.421875 -41.945312 120.234375 -34.46875 C 117.054688 -27 112.628906 -20.425781 106.953125 -14.75 C 101.273438 -9.070312 94.734375 -4.640625 87.328125 -1.453125 C 79.921875 1.734375 71.925781 3.328125 63.34375 3.328125 Z M 63.34375 -68.953125 C 60.4375 -68.953125 57.941406 -67.910156 55.859375 -65.828125 C 53.785156 -63.753906 52.75 -61.265625 52.75 -58.359375 C 52.75 -55.453125 53.785156 -52.957031 55.859375 -50.875 C 57.941406 -48.800781 60.4375 -47.765625 63.34375 -47.765625 C 66.25 -47.765625 68.738281 -48.800781 70.8125 -50.875 C 72.894531 -52.957031 73.9375 -55.453125 73.9375 -58.359375 C 73.9375 -61.265625 72.894531 -63.753906 70.8125 -65.828125 C 68.738281 -67.910156 66.25 -68.953125 63.34375 -68.953125 Z M 63.34375 -68.953125 "/></g></g></g></svg>