  <svg
    width="100"
    height="100"
    viewBox="0 0 100 100"
    xmlns="http://www.w3.org/2000/svg"
  >
    <path d="M 39.6875 -30.609375 C 41.46875 -31.578125 42.519531 -32.925781 42.84375 -34.65625 C 43.164062 -36.394531 42.78125 -37.972656 41.6875 -39.390625 C 40.601562 -40.804688 38.804688 -41.515625 36.296875 -41.515625 C 34.203125 -41.585938 32.609375 -41 31.515625 -39.75 C 30.429688 -38.5 29.867188 -37.046875 29.828125 -35.390625 C 29.785156 -33.742188 30.269531 -32.273438 31.28125 -30.984375 C 32.289062 -29.691406 33.882812 -29.046875 36.0625 -29.046875 L 70.3125 -29.046875 L 70.3125 0 L 36.0625 0 C 31.21875 0 26.695312 -0.90625 22.5 -2.71875 C 18.3125 -4.539062 14.601562 -7.0625 11.375 -10.28125 C 8.144531 -13.507812 5.625 -17.222656 3.8125 -21.421875 C 2 -25.617188 1.09375 -30.132812 1.09375 -34.96875 C 1.09375 -41.34375 2.523438 -47.148438 5.390625 -52.390625 C 8.253906 -57.640625 12.328125 -61.859375 17.609375 -65.046875 C 22.890625 -68.234375 29.160156 -69.867188 36.421875 -69.953125 C 40.210938 -69.953125 44.023438 -69.585938 47.859375 -68.859375 C 51.691406 -68.128906 55.300781 -66.753906 58.6875 -64.734375 C 62.082031 -62.722656 64.90625 -59.738281 67.15625 -55.78125 C 68.125 -54.09375 68.832031 -52.078125 69.28125 -49.734375 C 69.726562 -47.398438 69.890625 -45 69.765625 -42.53125 C 69.640625 -40.070312 69.132812 -37.773438 68.25 -35.640625 C 67.363281 -33.503906 65.992188 -31.828125 64.140625 -30.609375 Z M 39.6875 -30.609375" />
  </svg>
